<svg viewBox="0 0 907 907" xmlns="http://www.w3.org/2000/svg" fill-rule="evenodd" clip-rule="evenodd" stroke-linejoin="round" stroke-miterlimit="2"><path d="M425.502 203.7914C423.6863 101.605 471.0895 44.4787 546.5362 2.8742c24.9715-13.77 59.1473 27.2773 34.5812 42.01-59.303 35.566-96.1205 84.2026-97.9802 158.9072-.876 35.199-57.1032 29.933-57.6354 0z" fill="#551c0e"/><path d="M453.3984 222.0566c182.7677-123.849 427.2128-44.6072 452.3284 234.3243a200.6466 200.6466 0 01.5975 27.2498c-15.0294 321.4895-291.6947 509.716-445.2411 381.361C273.4722 1001.1076 19.4922 788.1335.5955 485.4372a201.2636 201.2636 0 01-.0077-24.5722C15.0198 223.1927 222.999 83.2338 453.3984 222.0566z" fill="red"/><path d="M61.4777 437.586c20.1993-121.4344 78.3284-200.4295 190.1968-213.7028 37.5726-4.4586 39.0211 44.9524 7.6848 49.316-85.6866 11.929-129.8065 73.3311-146.0097 168.0398-6.8125 39.8218-58.229 34.5651-51.8719-3.653z" fill="#fff"/></svg>