<svg viewBox="0 0 105 105" xmlns="http://www.w3.org/2000/svg" fill-rule="evenodd" clip-rule="evenodd" stroke-linejoin="round" stroke-miterlimit="2"><g transform="matrix(0 -1.05 1.05 0 0 105)"><clipPath id="a"><path d="M0 0h100v100H0z"/></clipPath><g clip-path="url(#a)"><path d="M42.6627 4.1425C18.619 5.8797 0 25.8927 0 49.999v.0015c0 24.1062 18.6191 44.1193 42.6628 45.8564L100.0001 100V-.0005S69.852 2.178 42.6627 4.1426z" fill="#006906"/><g transform="rotate(-90 49.8553 79.1912) scale(.14451)"><clipPath id="b"><path d="M864.331 498.226C852.31 331.844 713.82 203 547.005 203h-.01C380.18 203 241.69 331.844 229.669 498.226 216.074 686.375 201 895 201 895h692s-15.074-208.625-28.669-396.774z"/></clipPath><g clip-path="url(#b)"><path fill="#00a409" d="M546.9966 203.002v692.001H200.9964V203.002z"/></g></g><g transform="matrix(0 -.2671 .2671 0 -67.563 181.4373)"><circle cx="395.5" cy="545.5" r="72.5" fill="#fff"/><circle cx="395.5" cy="545.5" r="72.5" transform="matrix(.6 0 0 .6 158.2 189.2)"/></g><g transform="matrix(0 -.2671 .2671 0 -67.563 129.8323)"><circle cx="395.5" cy="545.5" r="72.5" fill="#fff"/><circle cx="395.5" cy="545.5" r="72.5" transform="matrix(.6 0 0 .6 158.2 189.2)"/></g></g></g></svg>